<?xml version="1.0" encoding="UTF-8"?>
<svg version="1.1" xmlns="http://www.w3.org/2000/svg" width="300" height="100">
<path d="M0 0 C99 0 198 0 300 0 C300 33 300 66 300 100 C201 100 102 100 0 100 C0 67 0 34 0 0 Z " fill="#000D19" transform="translate(0,0)"/>
<path d="M0 0 C0.33 0.66 0.66 1.32 1 2 C4.16604246 2.73501309 4.16604246 2.73501309 7.875 3.1875 C9.75832031 3.45626953 9.75832031 3.45626953 11.6796875 3.73046875 C14.9986039 4.21821495 14.9986039 4.21821495 18 3 C19.40824893 2.91978001 20.81997231 2.89234023 22.23046875 2.90234375 C23.43413086 2.90717773 23.43413086 2.90717773 24.66210938 2.91210938 C25.49548828 2.92048828 26.32886719 2.92886719 27.1875 2.9375 C28.03248047 2.94201172 28.87746094 2.94652344 29.74804688 2.95117188 C31.83206155 2.96294597 33.91603977 2.9808811 36 3 C36 3.99 36 4.98 36 6 C37.08007324 5.99476318 38.16014648 5.98952637 39.27294922 5.98413086 C43.27228978 5.96605892 47.27162672 5.95455993 51.27099609 5.94506836 C53.00342414 5.94003318 54.73584792 5.93320468 56.46826172 5.92456055 C58.95541433 5.91245935 61.44251087 5.90676362 63.9296875 5.90234375 C64.70682098 5.89718246 65.48395447 5.89202118 66.28463745 5.88670349 C71.77225659 5.88612829 71.77225659 5.88612829 74 7 C73.67 7.99 73.34 8.98 73 10 C71.35 9.67 69.7 9.34 68 9 C68 9.66 68 10.32 68 11 C68.78375 11.12375 69.5675 11.2475 70.375 11.375 C73 12 73 12 75 14 C74.75 16.5625 74.75 16.5625 74 19 C70.75864351 20.62067825 67.21002928 20.39697553 63.62890625 20.62109375 C60.77355181 20.84017203 60.77355181 20.84017203 58 23 C55.48803711 23.24291992 55.48803711 23.24291992 52.52734375 23.23046875 C51.46322266 23.22853516 50.39910156 23.22660156 49.30273438 23.22460938 C48.19220703 23.21236328 47.08167969 23.20011719 45.9375 23.1875 C44.82310547 23.18685547 43.70871094 23.18621094 42.56054688 23.18554688 C34.28071352 23.14035676 34.28071352 23.14035676 32 22 C32 21.34 32 20.68 32 20 C31.13375 20.495 30.2675 20.99 29.375 21.5 C25.89250377 23.0477761 23.75240542 23.26802896 20 23 C20 23.66 20 24.32 20 25 C18.35 24.67 16.7 24.34 15 24 C15 23.34 15 22.68 15 22 C13.93458984 21.90912109 13.93458984 21.90912109 12.84765625 21.81640625 C11.92855469 21.73261719 11.00945312 21.64882813 10.0625 21.5625 C8.68771484 21.44068359 8.68771484 21.44068359 7.28515625 21.31640625 C5 21 5 21 4 20 C0.43633737 19.96810021 -3.11719371 20.06871647 -6.6796875 20.16015625 C-10 20 -10 20 -13 18 C-12.505 16.515 -12.505 16.515 -12 15 C-9.36 15.33 -6.72 15.66 -4 16 C-4 15.01 -4 14.02 -4 13 C-5.11375 12.71125 -6.2275 12.4225 -7.375 12.125 C-11 11 -11 11 -13 9 C-12.90954196 5.56259462 -12.21403378 4.23291911 -9.875 1.6875 C-6.35183346 -0.38044558 -4.01922848 -0.31523361 0 0 Z " fill="#022E41" transform="translate(61,39)"/>
<path d="M0 0 C1.65 0 3.3 0 5 0 C5 1.98 5 3.96 5 6 C5.9590625 5.7525 5.9590625 5.7525 6.9375 5.5 C10.97586652 4.84067485 14.91807258 4.91996221 19 5 C19.66 3.35 20.32 1.7 21 0 C22.32 0 23.64 0 25 0 C28.132644 3.5967394 28.45601929 7.24102687 28.7890625 11.81640625 C28.913437 14.01137802 28.913437 14.01137802 29.7109375 16.02734375 C30 18 30 18 28.96069336 20.09667969 C26.06650244 22.90618191 23.89131026 22.47081129 19.91796875 22.42578125 C19.2261702 22.42249313 18.53437164 22.41920502 17.8216095 22.41581726 C15.60960502 22.40007251 13.39911277 22.35605368 11.1875 22.3125 C9.71029889 22.30100616 8.23308343 22.29122173 6.75585938 22.28320312 C0.74707505 22.22655195 -5.07801961 22.13438494 -11 21 C-11 20.34 -11 19.68 -11 19 C-11.64324219 19.2165625 -12.28648437 19.433125 -12.94921875 19.65625 C-20.13026717 21.86895536 -27.50138773 23.3063426 -35 22 C-37.17578125 19.98828125 -37.17578125 19.98828125 -39 18 C-42.167832 17.66551741 -42.167832 17.66551741 -45 18 C-45.33 15.36 -45.66 12.72 -46 10 C-46.99 12.64 -47.98 15.28 -49 18 C-50.32 18 -51.64 18 -53 18 C-53.66 16.35 -54.32 14.7 -55 13 C-55.33 14.65 -55.66 16.3 -56 18 C-56.99 18 -57.98 18 -59 18 C-59 12.72 -59 7.44 -59 2 C-57.35 2 -55.7 2 -54 2 C-53.01 4.97 -52.02 7.94 -51 11 C-49.35 7.7 -47.7 4.4 -46 1 C-44.35 1 -42.7 1 -41 1 C-40.34 1.99 -39.68 2.98 -39 4 C-35.88389446 4.58592634 -35.88389446 4.58592634 -32.375 4.6875 C-31.18648437 4.75324219 -29.99796875 4.81898437 -28.7734375 4.88671875 C-27.85820312 4.92410156 -26.94296875 4.96148437 -26 5 C-26 5.66 -26 6.32 -26 7 C-25.01 6.34 -24.02 5.68 -23 5 C-20.5480957 4.77294922 -20.5480957 4.77294922 -17.67578125 4.8046875 C-16.13374023 4.81435547 -16.13374023 4.81435547 -14.56054688 4.82421875 C-13.48869141 4.84097656 -12.41683594 4.85773437 -11.3125 4.875 C-10.22904297 4.88402344 -9.14558594 4.89304687 -8.02929688 4.90234375 C-5.3526429 4.9259266 -2.67643203 4.95883874 0 5 C0 3.35 0 1.7 0 0 Z " fill="#012E41" transform="translate(226,40)"/>
<path d="M0 0 C1.65 0 3.3 0 5 0 C5.66 0.99 6.32 1.98 7 3 C10.11610554 3.58592634 10.11610554 3.58592634 13.625 3.6875 C14.81351563 3.75324219 16.00203125 3.81898437 17.2265625 3.88671875 C18.14179688 3.92410156 19.05703125 3.96148437 20 4 C20 4.66 20 5.32 20 6 C20.99 5.67 21.98 5.34 23 5 C23 9.29 23 13.58 23 18 C24.32 18 25.64 18 27 18 C27 14.7 27 11.4 27 8 C28.32 7.67 29.64 7.34 31 7 C31.495 12.94 31.495 12.94 32 19 C25.20074938 21.13309823 18.09152865 22.10687881 11 21 C8.8125 18.9921875 8.8125 18.9921875 7 17 C3.832168 16.66551741 3.832168 16.66551741 1 17 C0.67 14.36 0.34 11.72 0 9 C-0.99 11.64 -1.98 14.28 -3 17 C-4.32 17 -5.64 17 -7 17 C-7.66 15.35 -8.32 13.7 -9 12 C-9.33 13.65 -9.66 15.3 -10 17 C-10.99 17 -11.98 17 -13 17 C-13 11.72 -13 6.44 -13 1 C-11.35 1 -9.7 1 -8 1 C-7.01 3.97 -6.02 6.94 -5 10 C-3.35 6.7 -1.7 3.4 0 0 Z " fill="#01293B" transform="translate(180,41)"/>
<path d="M0 0 C0.804375 0.144375 1.60875 0.28875 2.4375 0.4375 C4.4375 3.4375 4.4375 3.4375 4.4375 6.4375 C5.06398438 6.3653125 5.69046875 6.293125 6.3359375 6.21875 C7.15320313 6.1259375 7.97046875 6.033125 8.8125 5.9375 C9.62460938 5.8446875 10.43671875 5.751875 11.2734375 5.65625 C13.4375 5.4375 13.4375 5.4375 15.4375 5.4375 C16.0975 4.1175 16.7575 2.7975 17.4375 1.4375 C19.4175 1.4375 21.3975 1.4375 23.4375 1.4375 C23.4375 2.0975 23.4375 2.7575 23.4375 3.4375 C24.0975 3.4375 24.7575 3.4375 25.4375 3.4375 C25.9325 5.9125 25.9325 5.9125 26.4375 8.4375 C25.4475 8.1075 24.4575 7.7775 23.4375 7.4375 C22.75 5.375 22.75 5.375 22.4375 3.4375 C21.1175 3.4375 19.7975 3.4375 18.4375 3.4375 C17.7775 5.0875 17.1175 6.7375 16.4375 8.4375 C11.8175 8.7675 7.1975 9.0975 2.4375 9.4375 C2.4375 7.4575 2.4375 5.4775 2.4375 3.4375 C0.7875 3.4375 -0.8625 3.4375 -2.5625 3.4375 C-2.5625 5.0875 -2.5625 6.7375 -2.5625 8.4375 C-9.41901666 9.19333648 -16.13273531 9.52023189 -23.03125 9.375 C-25.68903794 9.31706027 -25.68903794 9.31706027 -28.5625 10.4375 C-28.5625 9.7775 -28.5625 9.1175 -28.5625 8.4375 C-32.8525 8.4375 -37.1425 8.4375 -41.5625 8.4375 C-42.2225 7.1175 -42.8825 5.7975 -43.5625 4.4375 C-46.00522296 4.49963752 -46.00522296 4.49963752 -48.5625 5.4375 C-50.0401719 7.95636732 -50.0401719 7.95636732 -50.875 11 C-51.20113281 12.01191406 -51.52726563 13.02382813 -51.86328125 14.06640625 C-52.09402344 14.84886719 -52.32476562 15.63132812 -52.5625 16.4375 C-54.8754482 14.1245518 -55.05830975 12.95845125 -55.6875 9.8125 C-55.85507813 8.99523438 -56.02265625 8.17796875 -56.1953125 7.3359375 C-56.31648437 6.70945312 -56.43765625 6.08296875 -56.5625 5.4375 C-58.2125 5.4375 -59.8625 5.4375 -61.5625 5.4375 C-61.5625 10.7175 -61.5625 15.9975 -61.5625 21.4375 C-60.5725 21.4375 -59.5825 21.4375 -58.5625 21.4375 C-58.5625 18.7975 -58.5625 16.1575 -58.5625 13.4375 C-55.93863513 16.49867568 -55.5625 17.16923127 -55.5625 21.4375 C-54.2425 21.4375 -52.9225 21.4375 -51.5625 21.4375 C-50.5725 18.1375 -49.5825 14.8375 -48.5625 11.4375 C-48.2325 11.4375 -47.9025 11.4375 -47.5625 11.4375 C-47.5625 14.7375 -47.5625 18.0375 -47.5625 21.4375 C-45.5825 21.1075 -43.6025 20.7775 -41.5625 20.4375 C-40.5725 21.7575 -39.5825 23.0775 -38.5625 24.4375 C-44.38739092 25.07961396 -50.20262714 25.54457627 -56.0625 25.6875 C-57.53203125 25.72617187 -57.53203125 25.72617187 -59.03125 25.765625 C-61.5625 25.4375 -61.5625 25.4375 -63.359375 24.31640625 C-65.09048852 21.6129465 -65.12139883 19.31124458 -65.3125 16.125 C-65.38984375 15.01511719 -65.4671875 13.90523437 -65.546875 12.76171875 C-65.56225074 9.49053016 -65.31549331 6.61935587 -64.5625 3.4375 C-63.9025 2.7775 -63.2425 2.1175 -62.5625 1.4375 C-59.0625 1.625 -59.0625 1.625 -55.5625 2.4375 C-54.5725 3.9225 -54.5725 3.9225 -53.5625 5.4375 C-53.02625 4.7775 -52.49 4.1175 -51.9375 3.4375 C-49.5625 1.4375 -49.5625 1.4375 -46.5625 0.875 C-43.5625 1.4375 -43.5625 1.4375 -41.625 4 C-40.6040625 5.2065625 -40.6040625 5.2065625 -39.5625 6.4375 C-36.12456661 6.25620185 -36.12456661 6.25620185 -32.5625 5.4375 C-31.634375 5.6025 -30.70625 5.7675 -29.75 5.9375 C-25.97180368 6.53015825 -22.73154513 6.079468 -18.95703125 5.62109375 C-16.5625 5.4375 -16.5625 5.4375 -13.25 6 C-9.95518483 6.53636526 -8.44825302 6.07535982 -5.5625 4.4375 C-5.0675 3.73625 -4.5725 3.035 -4.0625 2.3125 C-2.5625 0.4375 -2.5625 0.4375 0 0 Z " fill="#012E41" transform="translate(228.5625,36.5625)"/>
<path d="M0 0 C2.31 0.33 4.62 0.66 7 1 C7.02690104 3.79173055 7.04679053 6.58320348 7.0625 9.375 C7.07087891 10.1690625 7.07925781 10.963125 7.08789062 11.78125 C7.11328125 17.7734375 7.11328125 17.7734375 6 20 C2.37 20 -1.26 20 -5 20 C-5 19.34 -5 18.68 -5 18 C-5.5775 18.33 -6.155 18.66 -6.75 19 C-9 20 -9 20 -13 20 C-13 13.73 -13 7.46 -13 1 C-10.525 1.495 -10.525 1.495 -8 2 C-5.66822025 2.34403308 -3.33512959 2.67949202 -1 3 C-0.67 2.01 -0.34 1.02 0 0 Z " fill="#02364B" transform="translate(151,39)"/>
<path d="M0 0 C2.79173055 -0.02690104 5.58320348 -0.04679053 8.375 -0.0625 C9.56609375 -0.07506836 9.56609375 -0.07506836 10.78125 -0.08789062 C16.7734375 -0.11328125 16.7734375 -0.11328125 19 1 C18.67 1.99 18.34 2.98 18 4 C15.525 3.505 15.525 3.505 13 3 C13 3.66 13 4.32 13 5 C13.78375 5.12375 14.5675 5.2475 15.375 5.375 C18 6 18 6 20 8 C19.75 10.5625 19.75 10.5625 19 13 C15.83713638 14.58143181 12.46076395 14.05876769 9 14 C7.68 14 6.36 14 5 14 C3.35 14 1.7 14 0 14 C0 9.38 0 4.76 0 0 Z " fill="#095069" transform="translate(116,45)"/>
<path d="M0 0 C2.75 0.25 2.75 0.25 5 1 C5.495 2.98 5.495 2.98 6 5 C4.02 4.34 2.04 3.68 0 3 C0 9.27 0 15.54 0 22 C-2.97 22.33 -5.94 22.66 -9 23 C-7 22 -5 21 -3 20 C-3.10613836 17.54775306 -3.10613836 17.54775306 -4 15 C-6.47636012 13.62533375 -6.47636012 13.62533375 -9 13 C-9 12.34 -9 11.68 -9 11 C-7.35 11 -5.7 11 -4 11 C-3.67 10.34 -3.34 9.68 -3 9 C-3.61818604 9.00523682 -4.23637207 9.01047363 -4.87329102 9.01586914 C-16.96322124 9.10450993 -28.9504882 9.06599157 -41 8 C-41 7.01 -41 6.02 -41 5 C-42.98 5 -44.96 5 -47 5 C-46.34 4.01 -45.68 3.02 -45 2 C-41.62537285 2.54723683 -39.91765 3.0549 -37 5 C-34.88168822 5.20425074 -34.88168822 5.20425074 -32.625 5.0625 C-29.23303552 4.97439703 -26.32727367 5.31497307 -23 6 C-22.01 5.67 -21.02 5.34 -20 5 C-18.58401389 4.95609345 -17.16611277 4.96038845 -15.75 5 C-11.7172507 5.02622926 -7.94975509 4.92935414 -4 4 C-2.948125 2.948125 -2.948125 2.948125 -1.875 1.875 C-1.25625 1.25625 -0.6375 0.6375 0 0 Z " fill="#012B3E" transform="translate(138,37)"/>
<path d="M0 0 C-0.8353125 0.37125 -0.8353125 0.37125 -1.6875 0.75 C-4.39971127 2.21606015 -6.63587365 4.02989471 -9 6 C-9.05167527 8.42267086 -9.05167527 8.42267086 -8 11 C-4.52692672 12.86983745 -4.52692672 12.86983745 -1 14 C-1 14.99 -1 15.98 -1 17 C-3.64 17 -6.28 17 -9 17 C-9 17.66 -9 18.32 -9 19 C-6.00910037 20.49544981 -3.25847654 20.05405455 0.0625 20 C2.37469498 19.9624415 4.68797294 19.95323333 7 20 C7.33 20.33 7.66 20.66 8 21 C10.57391641 21.53176398 13.15859517 21.96430799 15.75 22.40234375 C16.4925 22.59957031 17.235 22.79679687 18 23 C18.33 23.66 18.66 24.32 19 25 C21.02463255 25.65213292 21.02463255 25.65213292 23 26 C23 25.34 23 24.68 23 24 C24.65 23.67 26.3 23.34 28 23 C25.00518135 27.31606218 25.00518135 27.31606218 23 29 C19.6875 28.875 19.6875 28.875 17 28 C16.67 27.01 16.34 26.02 16 25 C13.66687052 24.82987598 11.33362517 24.66309248 9 24.5 C7.96975708 24.42736938 7.96975708 24.42736938 6.91870117 24.35327148 C3.37068245 24.1152255 -0.13307397 23.96094497 -3.6875 24.0625 C-6.88046796 24.00225532 -8.48719046 23.93293042 -11 22 C-14.25416056 16.92350953 -13.69488592 10.778525 -13 5 C-9.56329028 -0.69205047 -6.10491031 -0.51736528 0 0 Z " fill="#012333" transform="translate(58,38)"/>
<path d="M0 0 C0.804375 0.144375 1.60875 0.28875 2.4375 0.4375 C4.4375 3.4375 4.4375 3.4375 4.4375 6.4375 C5.06398437 6.3653125 5.69046875 6.293125 6.3359375 6.21875 C7.56183594 6.07953125 7.56183594 6.07953125 8.8125 5.9375 C9.62460938 5.8446875 10.43671875 5.751875 11.2734375 5.65625 C13.4375 5.4375 13.4375 5.4375 15.4375 5.4375 C16.0975 4.1175 16.7575 2.7975 17.4375 1.4375 C19.4175 1.4375 21.3975 1.4375 23.4375 1.4375 C23.4375 2.0975 23.4375 2.7575 23.4375 3.4375 C24.0975 3.4375 24.7575 3.4375 25.4375 3.4375 C25.9325 5.9125 25.9325 5.9125 26.4375 8.4375 C25.4475 8.1075 24.4575 7.7775 23.4375 7.4375 C22.75 5.375 22.75 5.375 22.4375 3.4375 C21.1175 3.4375 19.7975 3.4375 18.4375 3.4375 C17.7775 5.0875 17.1175 6.7375 16.4375 8.4375 C11.8175 8.7675 7.1975 9.0975 2.4375 9.4375 C2.4375 7.4575 2.4375 5.4775 2.4375 3.4375 C0.7875 3.4375 -0.8625 3.4375 -2.5625 3.4375 C-2.5625 5.0875 -2.5625 6.7375 -2.5625 8.4375 C-9.41901666 9.19333648 -16.13273531 9.52023189 -23.03125 9.375 C-25.68903794 9.31706027 -25.68903794 9.31706027 -28.5625 10.4375 C-28.5625 9.7775 -28.5625 9.1175 -28.5625 8.4375 C-32.8525 8.4375 -37.1425 8.4375 -41.5625 8.4375 C-42.2225 7.1175 -42.8825 5.7975 -43.5625 4.4375 C-45.5425 4.7675 -47.5225 5.0975 -49.5625 5.4375 C-49.5625 4.7775 -49.5625 4.1175 -49.5625 3.4375 C-46.25 3.25 -46.25 3.25 -42.5625 3.4375 C-42.0675 3.953125 -41.5725 4.46875 -41.0625 5 C-40.5675 5.474375 -40.0725 5.94875 -39.5625 6.4375 C-37.22043749 6.17236085 -34.88637947 5.83137788 -32.5625 5.4375 C-31.634375 5.6025 -30.70625 5.7675 -29.75 5.9375 C-25.97180368 6.53015825 -22.73154513 6.079468 -18.95703125 5.62109375 C-16.5625 5.4375 -16.5625 5.4375 -13.25 6 C-9.95518483 6.53636526 -8.44825302 6.07535982 -5.5625 4.4375 C-5.0675 3.73625 -4.5725 3.035 -4.0625 2.3125 C-2.5625 0.4375 -2.5625 0.4375 0 0 Z " fill="#023043" transform="translate(228.5625,36.5625)"/>
<path d="M0 0 C1.32 0 2.64 0 4 0 C4 5.61 4 11.22 4 17 C3.01 17 2.02 17 1 17 C0.67 14.36 0.34 11.72 0 9 C-0.99 11.64 -1.98 14.28 -3 17 C-4.32 17 -5.64 17 -7 17 C-7.66 15.35 -8.32 13.7 -9 12 C-9.33 13.65 -9.66 15.3 -10 17 C-10.99 17 -11.98 17 -13 17 C-13 11.72 -13 6.44 -13 1 C-11.35 1 -9.7 1 -8 1 C-7.01 3.97 -6.02 6.94 -5 10 C-3.35 6.7 -1.7 3.4 0 0 Z " fill="#68D0ED" transform="translate(180,41)"/>
<path d="M0 0 C7.51953125 -0.390625 7.51953125 -0.390625 10 0 C12.37738249 2.41348157 12.95072272 3.60578176 13.375 7 C12.95656309 10.34749528 12.50907308 11.75048621 10 14 C7.3125 14.25 7.3125 14.25 5 14 C4.67 15.65 4.34 17.3 4 19 C2.68 19 1.36 19 0 19 C0 12.73 0 6.46 0 0 Z " fill="#62C9E6" transform="translate(77,45)"/>
<path d="M0 0 C0.99 0 1.98 0 3 0 C3 5.94 3 11.88 3 18 C1.39125 18.04125 -0.2175 18.0825 -1.875 18.125 C-2.77992188 18.14820312 -3.68484375 18.17140625 -4.6171875 18.1953125 C-7 18 -7 18 -9 16 C-9.265625 14.125 -9.265625 14.125 -9.25 12 C-9.25515625 11.29875 -9.2603125 10.5975 -9.265625 9.875 C-9 8 -9 8 -7 6 C-3.875 5.875 -3.875 5.875 -1 6 C-0.67 4.02 -0.34 2.04 0 0 Z " fill="#6ED6F3" transform="translate(227,40)"/>
<path d="M0 0 C2 2 2 2 2.3125 5.9375 C2.2339218 8.48435809 2.13665953 9.75704973 0.875 12 C-1.89815624 13.47901666 -3.91184125 13.38601984 -7 13 C-8.875 12 -8.875 12 -10 10 C-10.54135705 6.39095302 -10.62822841 3.2195022 -8.9375 -0.0625 C-5.79513385 -1.58299975 -3.30307292 -0.78072633 0 0 Z " fill="#60C7E5" transform="translate(198,46)"/>
<path d="M0 0 C1.7325 0.1546875 1.7325 0.1546875 3.5 0.3125 C4.16 1.3025 4.82 2.2925 5.5 3.3125 C2.21023192 4.40908936 0.78696233 4.11203138 -2.5 3.3125 C-2.17 4.3025 -1.84 5.2925 -1.5 6.3125 C0.80252483 7.38152939 3.1372026 8.38425817 5.5 9.3125 C6.5 10.3125 6.5 10.3125 6.75 12.6875 C6.5 15.3125 6.5 15.3125 5.4375 17.125 C2.43702602 18.96400018 -0.06481613 18.61921285 -3.5 18.3125 C-4.49 17.6525 -5.48 16.9925 -6.5 16.3125 C-6.17 15.3225 -5.84 14.3325 -5.5 13.3125 C-2.86 13.6425 -0.22 13.9725 2.5 14.3125 C2.5 13.3225 2.5 12.3325 2.5 11.3125 C1.38625 11.02375 0.2725 10.735 -0.875 10.4375 C-4.5 9.3125 -4.5 9.3125 -6.5 7.3125 C-6.00918093 2.4043093 -5.18644391 0.46307535 0 0 Z " fill="#69D1EE" transform="translate(54.5,40.6875)"/>
<path d="M0 0 C1.32 0 2.64 0 4 0 C4.33 1.65 4.66 3.3 5 5 C5.78375 4.95875 6.5675 4.9175 7.375 4.875 C10 5 10 5 12 7 C12.1953125 9.6015625 12.1953125 9.6015625 12.125 12.625 C12.10695312 13.62789062 12.08890625 14.63078125 12.0703125 15.6640625 C12.03550781 16.82035156 12.03550781 16.82035156 12 18 C11.01 18 10.02 18 9 18 C8.67 15.03 8.34 12.06 8 9 C7.01 9 6.02 9 5 9 C4.67 12.3 4.34 15.6 4 19 C2.68 19 1.36 19 0 19 C0 12.73 0 6.46 0 0 Z " fill="#5EC5E2" transform="translate(138,40)"/>
<path d="M0 0 C2.42818701 1.74196025 2.94889789 2.73044611 3.51171875 5.69921875 C3.59873047 7.17841797 3.59873047 7.17841797 3.6875 8.6875 C3.78611328 10.17830078 3.78611328 10.17830078 3.88671875 11.69921875 C3.92410156 12.45847656 3.96148437 13.21773437 4 14 C2.37536158 14.05395478 0.75021459 14.09277195 -0.875 14.125 C-1.77992187 14.14820313 -2.68484375 14.17140625 -3.6171875 14.1953125 C-6 14 -6 14 -8 12 C-7.9375 9.5 -7.9375 9.5 -7 7 C-4.5 5.8125 -4.5 5.8125 -2 5 C-1.67 4.34 -1.34 3.68 -1 3 C-2.98 3.33 -4.96 3.66 -7 4 C-7 3.01 -7 2.02 -7 1 C-4.45132831 -0.27433584 -2.82594567 -0.27570202 0 0 Z " fill="#66CEEB" transform="translate(110,45)"/>
<path d="M0 0 C2.42818701 1.74196025 2.94889789 2.73044611 3.51171875 5.69921875 C3.59873047 7.17841797 3.59873047 7.17841797 3.6875 8.6875 C3.78611328 10.17830078 3.78611328 10.17830078 3.88671875 11.69921875 C3.92410156 12.45847656 3.96148437 13.21773437 4 14 C2.84564453 13.73509766 2.84564453 13.73509766 1.66796875 13.46484375 C-1.00904375 12.82898406 -1.00904375 12.82898406 -3.6875 13.5625 C-4.450625 13.706875 -5.21375 13.85125 -6 14 C-6.66 13.34 -7.32 12.68 -8 12 C-7.9375 9.5 -7.9375 9.5 -7 7 C-4.5 5.8125 -4.5 5.8125 -2 5 C-1.67 4.34 -1.34 3.68 -1 3 C-3.31 3.33 -5.62 3.66 -8 4 C-7.67 3.01 -7.34 2.02 -7 1 C-4.45132831 -0.27433584 -2.82594567 -0.27570202 0 0 Z " fill="#68D0ED" transform="translate(71,45)"/>
<path d="M0 0 C1.60875 -0.04125 3.2175 -0.0825 4.875 -0.125 C5.77992188 -0.14820313 6.68484375 -0.17140625 7.6171875 -0.1953125 C10 0 10 0 12 2 C12.1953125 4.8203125 12.1953125 4.8203125 12.125 8.125 C12.10695312 9.22070312 12.08890625 10.31640625 12.0703125 11.4453125 C12.04710937 12.28835937 12.02390625 13.13140625 12 14 C10.68 14 9.36 14 8 14 C8 10.37 8 6.74 8 3 C7.01 3.33 6.02 3.66 5 4 C4.67 7.3 4.34 10.6 4 14 C2.68 14 1.36 14 0 14 C0 9.38 0 4.76 0 0 Z " fill="#5CC1DE" transform="translate(203,45)"/>
<path d="M0 0 C6.875 0.875 6.875 0.875 8 2 C8.46212633 5.6570738 8.70429173 9.32476863 9 13 C5.37 13 1.74 13 -2 13 C-2.33 11.35 -2.66 9.7 -3 8 C-1 6 -1 6 1.625 5.875 C2.40875 5.91625 3.1925 5.9575 4 6 C4 5.01 4 4.02 4 3 C2.02 3.33 0.04 3.66 -2 4 C-1.34 2.68 -0.68 1.36 0 0 Z " fill="#68D0ED" transform="translate(236,45)"/>
<path d="M0 0 C1.69141656 0.08963062 3.37959602 0.24577676 5.0625 0.4375 C6.44115234 0.59025391 6.44115234 0.59025391 7.84765625 0.74609375 C8.55792969 0.82988281 9.26820312 0.91367187 10 1 C9.37609375 1.29648437 8.7521875 1.59296875 8.109375 1.8984375 C5.96202908 3.01982926 4.61904165 4.21905418 3 6 C6.465 5.505 6.465 5.505 10 5 C9.67 5.99 9.34 6.98 9 8 C6.4375 9.1875 6.4375 9.1875 4 10 C4 11.65 4 13.3 4 15 C2.35 15 0.7 15 -1 15 C-0.67 12.69 -0.34 10.38 0 8 C-2.64 6.68 -5.28 5.36 -8 4 C-8 3.01 -8 2.02 -8 1 C-6.865625 1.020625 -5.73125 1.04125 -4.5625 1.0625 C-1.18424326 1.41577477 -1.18424326 1.41577477 0 0 Z " fill="#03394F" transform="translate(60,43)"/>
<path d="M0 0 C0.33 0 0.66 0 1 0 C1 1.98 1 3.96 1 6 C2.32 6.33 3.64 6.66 5 7 C4.67 7.66 4.34 8.32 4 9 C5.98 8.67 7.96 8.34 10 8 C10 8.99 10 9.98 10 11 C8.02 11.66 6.04 12.32 4 13 C4 14.32 4 15.64 4 17 C5.0725 16.95875 6.145 16.9175 7.25 16.875 C11 17 11 17 15 19 C6.75 19 -1.5 19 -10 19 C-10 18.67 -10 18.34 -10 18 C-3.375 16.875 -3.375 16.875 0 18 C0 12.06 0 6.12 0 0 Z " fill="#1D738F" transform="translate(230,40)"/>
<path d="M0 0 C3.625 0.375 3.625 0.375 7 1 C6.67 1.99 6.34 2.98 6 4 C4.35 3.67 2.7 3.34 1 3 C1 3.66 1 4.32 1 5 C1.78375 5.12375 2.5675 5.2475 3.375 5.375 C6 6 6 6 8 8 C7.75 10.5625 7.75 10.5625 7 13 C4.21136993 14.39431504 2.07921132 14.25660094 -1 14 C-1.66 13.01 -2.32 12.02 -3 11 C0.13349732 9.95550089 0.98968256 10.06576355 4 11 C4 10.34 4 9.68 4 9 C2.02 8.34 0.04 7.68 -2 7 C-2.125 4.625 -2.125 4.625 -2 2 C-1.34 1.34 -0.68 0.68 0 0 Z " fill="#62C9E7" transform="translate(128,45)"/>
<path d="M0 0 C0.33 0 0.66 0 1 0 C1 5.94 1 11.88 1 18 C-1.97 18.33 -4.94 18.66 -8 19 C-6 18 -4 17 -2 16 C-2.10613836 13.54775306 -2.10613836 13.54775306 -3 11 C-5.47636012 9.62533375 -5.47636012 9.62533375 -8 9 C-8 8.34 -8 7.68 -8 7 C-6.35 7 -4.7 7 -3 7 C-2.67 6.34 -2.34 5.68 -2 5 C-4.97 5 -7.94 5 -11 5 C-11.33 4.34 -11.66 3.68 -12 3 C-11.21753906 2.95101562 -10.43507813 2.90203125 -9.62890625 2.8515625 C-8.61699219 2.77679688 -7.60507813 2.70203125 -6.5625 2.625 C-5.55316406 2.55539063 -4.54382813 2.48578125 -3.50390625 2.4140625 C-2.26447266 2.20910156 -2.26447266 2.20910156 -1 2 C-0.67 1.34 -0.34 0.68 0 0 Z " fill="#034861" transform="translate(137,41)"/>
<path d="M0 0 C1.65 0 3.3 0 5 0 C3.68 0.33 2.36 0.66 1 1 C1 6.28 1 11.56 1 17 C1.99 17 2.98 17 4 17 C4 14.36 4 11.72 4 9 C6.62386487 12.06117568 7 12.73173127 7 17 C8.32 17 9.64 17 11 17 C11.99 13.7 12.98 10.4 14 7 C14.33 7 14.66 7 15 7 C15 10.3 15 13.6 15 17 C15.99 17.33 16.98 17.66 18 18 C12.06 18 6.12 18 0 18 C0 12.06 0 6.12 0 0 Z " fill="#257D98" transform="translate(166,41)"/>
<path d="M0 0 C1.32 0 2.64 0 4 0 C4 5.28 4 10.56 4 16 C4.66 16 5.32 16 6 16 C6 16.99 6 17.98 6 19 C1.125 18.125 1.125 18.125 0 17 C-0.07325168 14.13732433 -0.09238205 11.299281 -0.0625 8.4375 C-0.05798828 7.63119141 -0.05347656 6.82488281 -0.04882812 5.99414062 C-0.03700518 3.99606244 -0.01906914 1.99802217 0 0 Z " fill="#5CC3E0" transform="translate(247,40)"/>
<path d="M0 0 C1.77734375 1.5078125 1.77734375 1.5078125 3 3 C5.10332891 3.71447643 5.10332891 3.71447643 7 4 C7 3.34 7 2.68 7 2 C8.65 1.67 10.3 1.34 12 1 C9.00518135 5.31606218 9.00518135 5.31606218 7 7 C3.6875 6.875 3.6875 6.875 1 6 C0.67 5.01 0.34 4.02 0 3 C-11.48686928 2.14191263 -11.48686928 2.14191263 -23 2 C-23 1.67 -23 1.34 -23 1 C-15.31548526 -1.25235777 -7.90147743 -1.51326496 0 0 Z " fill="#012A3C" transform="translate(74,60)"/>
<path d="M0 0 C0.99 0 1.98 0 3 0 C3 0.66 3 1.32 3 2 C3.66 2 4.32 2 5 2 C5.33 4.97 5.66 7.94 6 11 C8.475 11.99 8.475 11.99 11 13 C11 13.33 11 13.66 11 14 C10.07767578 13.96519531 10.07767578 13.96519531 9.13671875 13.9296875 C8.32847656 13.91164063 7.52023438 13.89359375 6.6875 13.875 C5.48673828 13.84019531 5.48673828 13.84019531 4.26171875 13.8046875 C1.71611424 13.84182678 1.71611424 13.84182678 -1 16 C-4.1875 16.125 -4.1875 16.125 -7 16 C-6.67 14.68 -6.34 13.36 -6 12 C-5.21625 12.061875 -4.4325 12.12375 -3.625 12.1875 C-2.75875 12.125625 -1.8925 12.06375 -1 12 C1.3151437 8.52728445 1.25453763 7.07260203 1 3 C0.67 2.01 0.34 1.02 0 0 Z " fill="#023B51" transform="translate(88,46)"/>
<path d="M0 0 C0.99 0 1.98 0 3 0 C3 0.99 3 1.98 3 3 C4.32 3 5.64 3 7 3 C7 3.66 7 4.32 7 5 C5.68 5 4.36 5 3 5 C3.33 7.31 3.66 9.62 4 12 C4.99 12.33 5.98 12.66 7 13 C7 13.99 7 14.98 7 16 C4.625 16.125 4.625 16.125 2 16 C0 14 0 14 -0.1953125 11.8359375 C-0.17210938 11.02382813 -0.14890625 10.21171875 -0.125 9.375 C-0.10695313 8.55773438 -0.08890625 7.74046875 -0.0703125 6.8984375 C-0.04710938 6.27195312 -0.02390625 5.64546875 0 5 C-0.66 5 -1.32 5 -2 5 C-2 4.01 -2 3.02 -2 2 C-1.34 2 -0.68 2 0 2 C0 1.34 0 0.68 0 0 Z " fill="#6DD6F3" transform="translate(93,43)"/>
<path d="M0 0 C0.66 0 1.32 0 2 0 C2 0.66 2 1.32 2 2 C3.25296875 1.9278125 4.5059375 1.855625 5.796875 1.78125 C7.44791332 1.687441 9.09895517 1.59369426 10.75 1.5 C11.9875 1.42845703 11.9875 1.42845703 13.25 1.35546875 C14.04921875 1.31035156 14.8484375 1.26523437 15.671875 1.21875 C16.4050293 1.17685547 17.13818359 1.13496094 17.89355469 1.09179688 C19.92733614 1.00316662 21.96428825 1 24 1 C24.66 1.99 25.32 2.98 26 4 C20.17510908 4.64211396 14.35987286 5.10707627 8.5 5.25 C7.03046875 5.28867187 7.03046875 5.28867187 5.53125 5.328125 C3 5 3 5 1.15625 3.609375 C0 2 0 2 0 0 Z " fill="#012739" transform="translate(164,57)"/>
<path d="M0 0 C2.64 0.33 5.28 0.66 8 1 C8 1.99 8 2.98 8 4 C6.68 4 5.36 4 4 4 C4 7.3 4 10.6 4 14 C2.68 14 1.36 14 0 14 C0 9.38 0 4.76 0 0 Z " fill="#58BDD9" transform="translate(116,45)"/>
<path d="M0 0 C0.99 0.99 1.98 1.98 3 3 C5.09989652 4.17574711 5.09989652 4.17574711 7 5 C6.34 5.66 5.68 6.32 5 7 C4.71994942 8.91180549 4.71994942 8.91180549 4.8125 11 C4.81894531 11.70125 4.82539063 12.4025 4.83203125 13.125 C4.89293867 15.09056373 4.89293867 15.09056373 6 17 C4.02 17 2.04 17 0 17 C0 11.39 0 5.78 0 0 Z " fill="#044861" transform="translate(184,41)"/>
<path d="M0 0 C1.98 0 3.96 0 6 0 C8.81878302 6.3422618 9.21883101 14.20691384 7.09375 20.8203125 C6 23 6 23 4.25 23.8125 C1.48957053 24.04253579 -1.23149776 24.06292051 -4 24 C-2.3125 21.9375 -2.3125 21.9375 0 20 C1.65 20.33 3.3 20.66 5 21 C5.33 14.73 5.66 8.46 6 2 C3.03 1.505 3.03 1.505 0 1 C0 0.67 0 0.34 0 0 Z " fill="#022B3D" transform="translate(152,38)"/>
<path d="M0 0 C2.97 0.495 2.97 0.495 6 1 C6 6.61 6 12.22 6 18 C5.67 17.34 5.34 16.68 5 16 C2.64400765 15.53248212 2.64400765 15.53248212 -0.0625 15.375 C-0.98160156 15.30023438 -1.90070313 15.22546875 -2.84765625 15.1484375 C-3.55792969 15.09945312 -4.26820312 15.05046875 -5 15 C-3.3125 13.375 -3.3125 13.375 -1 12 C1.75 12.8125 1.75 12.8125 4 14 C3.71715982 12.22773547 3.42339502 10.457212 3.125 8.6875 C2.88136719 7.20830078 2.88136719 7.20830078 2.6328125 5.69921875 C2.11914546 2.79940173 2.11914546 2.79940173 0 0 Z " fill="#054E67" transform="translate(71,45)"/>
<path d="M0 0 C0.33 0 0.66 0 1 0 C1 2.31 1 4.62 1 7 C-0.134375 6.979375 -1.26875 6.95875 -2.4375 6.9375 C-5.81575674 6.58422523 -5.81575674 6.58422523 -7 8 C-7.37052339 13.17735677 -7.37052339 13.17735677 -6 18 C-7.65 18 -9.3 18 -11 18 C-11.06058594 17.22914062 -11.12117187 16.45828125 -11.18359375 15.6640625 C-11.26738281 14.66117188 -11.35117188 13.65828125 -11.4375 12.625 C-11.51871094 11.62726562 -11.59992188 10.62953125 -11.68359375 9.6015625 C-11.84965626 7.02072387 -11.84965626 7.02072387 -13 5 C-8.71 5 -4.42 5 0 5 C0 3.35 0 1.7 0 0 Z " fill="#10617C" transform="translate(226,40)"/>
<path d="M0 0 C0.66 0 1.32 0 2 0 C2.21917317 2.70313576 2.32851983 4.43958382 0.9375 6.8125 C-2.06297398 8.65150018 -4.56481613 8.30671285 -8 8 C-8.99 7.34 -9.98 6.68 -11 6 C-10.67 5.01 -10.34 4.02 -10 3 C-7.36 3.33 -4.72 3.66 -2 4 C-2 3.34 -2 2.68 -2 2 C-1.34 2 -0.68 2 0 2 C0 1.34 0 0.68 0 0 Z " fill="#65CCE9" transform="translate(59,51)"/>
<path d="M0 0 C0.99 0 1.98 0 3 0 C3 4.62 3 9.24 3 14 C1.68 14 0.36 14 -1 14 C-1.02685938 11.85423363 -1.04633088 9.70837355 -1.0625 7.5625 C-1.07410156 6.36753906 -1.08570313 5.17257813 -1.09765625 3.94140625 C-1 1 -1 1 0 0 Z " fill="#5ABEDA" transform="translate(154,45)"/>
<path d="M0 0 C1.32 0 2.64 0 4 0 C4 0.99 4 1.98 4 3 C6.64 3 9.28 3 12 3 C11.01 3.495 11.01 3.495 10 4 C10 4.99 10 5.98 10 7 C11.98 6.67 13.96 6.34 16 6 C15.67 6.99 15.34 7.98 15 9 C11.9375 10.1875 11.9375 10.1875 9 11 C8.67 9.68 8.34 8.36 8 7 C6.68 7 5.36 7 4 7 C4 8.98 4 10.96 4 13 C3.67 13 3.34 13 3 13 C3 10.69 3 8.38 3 6 C4.32 6 5.64 6 7 6 C7 5.34 7 4.68 7 4 C5.68 4 4.36 4 3 4 C3 3.01 3 2.02 3 1 C2.01 0.67 1.02 0.34 0 0 Z " fill="#1A718E" transform="translate(93,42)"/>
<path d="M0 0 C0.99 0 1.98 0 3 0 C3.33 0.99 3.66 1.98 4 3 C-0.12066854 5.06033427 -2.54340437 4.89131913 -7 4 C-7.99 4.495 -7.99 4.495 -9 5 C-11.6723621 5.13415472 -14.32250488 5.04318541 -17 5 C-17.33 4.01 -17.66 3.02 -18 2 C-17.35933594 2.01160156 -16.71867187 2.02320313 -16.05859375 2.03515625 C-10.92072068 2.08875552 -6.05248712 1.96749753 -1 1 C-0.67 0.67 -0.34 0.34 0 0 Z " fill="#01283A" transform="translate(143,57)"/>
<path d="M0 0 C0.33 0 0.66 0 1 0 C1.06058594 1.05960938 1.12117187 2.11921875 1.18359375 3.2109375 C1.26800127 4.59897221 1.35264917 5.98699232 1.4375 7.375 C1.47681641 8.07367188 1.51613281 8.77234375 1.55664062 9.4921875 C1.74280134 13.37360492 1.74280134 13.37360492 3 17 C1.68 17 0.36 17 -1 17 C-1.12117187 16.15695313 -1.24234375 15.31390625 -1.3671875 14.4453125 C-1.53476563 13.34960938 -1.70234375 12.25390625 -1.875 11.125 C-2.03742188 10.03445312 -2.19984375 8.94390625 -2.3671875 7.8203125 C-2.76256513 4.88067286 -2.76256513 4.88067286 -5 3 C-3.68 3 -2.36 3 -1 3 C-0.67 2.01 -0.34 1.02 0 0 Z " fill="#054E67" transform="translate(246,42)"/>
<path d="M0 0 C1.65 0 3.3 0 5 0 C5 1.98 5 3.96 5 6 C4.01 6 3.02 6 2 6 C2 9.3 2 12.6 2 16 C1.34 16 0.68 16 0 16 C0 10.72 0 5.44 0 0 Z " fill="#79E1FC" transform="translate(167,42)"/>
<path d="M0 0 C1.98 0.495 1.98 0.495 4 1 C4 3.97 4 6.94 4 10 C4.99 10.33 5.98 10.66 7 11 C5.68 11 4.36 11 3 11 C3 10.34 3 9.68 3 9 C1.68 9.33 0.36 9.66 -1 10 C-1.02689216 8.52093108 -1.04634621 7.04172517 -1.0625 5.5625 C-1.07410156 4.73878906 -1.08570313 3.91507813 -1.09765625 3.06640625 C-1 1 -1 1 0 0 Z " fill="#105F7A" transform="translate(143,48)"/>
<path d="M0 0 C0.94875 0.04125 1.8975 0.0825 2.875 0.125 C2.875 0.785 2.875 1.445 2.875 2.125 C1.555 2.455 0.235 2.785 -1.125 3.125 C-1.53249675 7.38231568 -1.53249675 7.38231568 0.375 11 C0.87 11.37125 1.365 11.7425 1.875 12.125 C-0.5 12.25 -0.5 12.25 -3.125 12.125 C-5.125 10.125 -5.125 10.125 -5.390625 8.25 C-5.38546875 7.54875 -5.3803125 6.8475 -5.375 6.125 C-5.38015625 5.42375 -5.3853125 4.7225 -5.390625 4 C-4.88506733 0.43135764 -3.38047153 0.13521886 0 0 Z " fill="#71DAF7" transform="translate(223.125,45.875)"/>
<path d="M0 0 C2.375 -0.125 2.375 -0.125 5 0 C7 2 7 2 7.1953125 4.6015625 C7.17210937 5.59929688 7.14890625 6.59703125 7.125 7.625 C7.10695312 8.62789062 7.08890625 9.63078125 7.0703125 10.6640625 C7.03550781 11.82035156 7.03550781 11.82035156 7 13 C6.01 13 5.02 13 4 13 C3.96261719 12.38511719 3.92523438 11.77023438 3.88671875 11.13671875 C3.82097656 10.32847656 3.75523437 9.52023438 3.6875 8.6875 C3.62949219 7.88699219 3.57148438 7.08648437 3.51171875 6.26171875 C2.91510125 3.62476049 2.00216935 2.74451753 0 1 C0 0.67 0 0.34 0 0 Z " fill="#68CFEC" transform="translate(143,45)"/>
<path d="M0 0 C0.06058594 0.62648437 0.12117188 1.25296875 0.18359375 1.8984375 C0.26738281 2.71570312 0.35117188 3.53296875 0.4375 4.375 C0.55931641 5.59316406 0.55931641 5.59316406 0.68359375 6.8359375 C0.89090114 9.04272805 0.89090114 9.04272805 2 11 C0.68 11 -0.64 11 -2 11 C-2 10.01 -2 9.02 -2 8 C-2.99 8 -3.98 8 -5 8 C-5 5.69 -5 3.38 -5 1 C-1.125 0 -1.125 0 0 0 Z " fill="#03435B" transform="translate(102,48)"/>
<path d="M0 0 C-0.33 0.99 -0.66 1.98 -1 3 C-3.5625 4.1875 -3.5625 4.1875 -6 5 C-6 6.65 -6 8.3 -6 10 C-7.65 10 -9.3 10 -11 10 C-10.814375 8.88625 -10.62875 7.7725 -10.4375 6.625 C-9.68319343 3.17431139 -9.68319343 3.17431139 -11 1 C-7.26513121 0.4254048 -3.78706732 0 0 0 Z " fill="#0E6682" transform="translate(70,48)"/>
<path d="M0 0 C0.78375 0.04125 1.5675 0.0825 2.375 0.125 C2.375 0.785 2.375 1.445 2.375 2.125 C1.385 2.455 0.395 2.785 -0.625 3.125 C-0.625 5.765 -0.625 8.405 -0.625 11.125 C-1.615 11.125 -2.605 11.125 -3.625 11.125 C-5.51988952 9.23011048 -4.80519112 6.55360854 -4.85546875 4.03515625 C-4.45978854 0.75570502 -3.15370959 0.15017665 0 0 Z " fill="#6ED6F4" transform="translate(192.625,45.875)"/>
<path d="M0 0 C1.32 0 2.64 0 4 0 C4 0.66 4 1.32 4 2 C4.99 1.67 5.98 1.34 7 1 C7 4.96 7 8.92 7 13 C5.35 13 3.7 13 2 13 C2.33 12.34 2.66 11.68 3 11 C3.58184185 5.63036713 3.58184185 5.63036713 1.5 1 C1.005 0.67 0.51 0.34 0 0 Z " fill="#08556F" transform="translate(196,45)"/>
<path d="M0 0 C0.33 0 0.66 0 1 0 C1.33 3.63 1.66 7.26 2 11 C-1.3 11 -4.6 11 -8 11 C-8 10.67 -8 10.34 -8 10 C-6.35 9.67 -4.7 9.34 -3 9 C-4.32 8.67 -5.64 8.34 -7 8 C-6.67 7.01 -6.34 6.02 -6 5 C-4.35 5.33 -2.7 5.66 -1 6 C-0.67 4.02 -0.34 2.04 0 0 Z " fill="#3B9EBC" transform="translate(112,48)"/>
<path d="M0 0 C2.0625 0.4375 2.0625 0.4375 4 1 C5.125 5.75 5.125 5.75 4 8 C2.35 7.67 0.7 7.34 -1 7 C-1.04254356 5.00045254 -1.04080783 2.99958364 -1 1 C-0.67 0.67 -0.34 0.34 0 0 Z " fill="#126B87" transform="translate(222,48)"/>
<path d="M0 0 C0.33 0 0.66 0 1 0 C1.33 3.63 1.66 7.26 2 11 C0.68 10.67 -0.64 10.34 -2 10 C-2 9.34 -2 8.68 -2 8 C-3.65 8 -5.3 8 -7 8 C-6.67 6.68 -6.34 5.36 -6 4 C-4.68 4 -3.36 4 -2 4 C-1.67 4.99 -1.34 5.98 -1 7 C-0.67 4.69 -0.34 2.38 0 0 Z " fill="#3EA5C3" transform="translate(73,48)"/>
<path d="M0 0 C2.97 0.495 2.97 0.495 6 1 C6.05391993 2.79133978 6.09275571 4.58313899 6.125 6.375 C6.14820312 7.37273438 6.17140625 8.37046875 6.1953125 9.3984375 C6 12 6 12 4 14 C3.87882812 13.24074219 3.75765625 12.48148438 3.6328125 11.69921875 C3.46523437 10.70535156 3.29765625 9.71148437 3.125 8.6875 C2.96257812 7.70136719 2.80015625 6.71523438 2.6328125 5.69921875 C2.11914546 2.79940173 2.11914546 2.79940173 0 0 Z " fill="#07526C" transform="translate(110,45)"/>
<path d="M0 0 C3 3 3 3 3.29296875 5.69921875 C3.25816406 6.68535156 3.22335938 7.67148437 3.1875 8.6875 C3.16042969 9.68136719 3.13335937 10.67523438 3.10546875 11.69921875 C3.07066406 12.45847656 3.03585938 13.21773437 3 14 C2.01 14 1.02 14 0 14 C0 9.38 0 4.76 0 0 Z " fill="#02384D" transform="translate(251,42)"/>
<path d="M0 0 C1.65 0 3.3 0 5 0 C6.125 4.75 6.125 4.75 5 7 C3.68 7 2.36 7 1 7 C0.67 4.69 0.34 2.38 0 0 Z " fill="#0D617C" transform="translate(191,49)"/>
<path d="M0 0 C1.32 0 2.64 0 4 0 C4 5.61 4 11.22 4 17 C3.67 17 3.34 17 3 17 C3 13.04 3 9.08 3 5 C1.68 5.33 0.36 5.66 -1 6 C-1.042721 4.33388095 -1.04063832 2.66617115 -1 1 C-0.67 0.67 -0.34 0.34 0 0 Z " fill="#277892" transform="translate(154,40)"/>
<path d="M0 0 C2.0625 0.4375 2.0625 0.4375 4 1 C4 2.98 4 4.96 4 7 C2.0625 7.5625 2.0625 7.5625 0 8 C-1 7 -1 7 -1.125 4 C-1 1 -1 1 0 0 Z " fill="#0B617D" transform="translate(82,48)"/>
<path d="M0 0 C0.99 0.495 0.99 0.495 2 1 C2 2.98 2 4.96 2 7 C3.65 7.33 5.3 7.66 7 8 C7 8.99 7 9.98 7 11 C4.625 11.125 4.625 11.125 2 11 C0 9 0 9 -0.1953125 6.8359375 C-0.17210938 6.02382813 -0.14890625 5.21171875 -0.125 4.375 C-0.10695313 3.55773438 -0.08890625 2.74046875 -0.0703125 1.8984375 C-0.04710938 1.27195313 -0.02390625 0.64546875 0 0 Z " fill="#65CDE9" transform="translate(93,48)"/>
<path d="M0 0 C1.11375 0.2475 1.11375 0.2475 2.25 0.5 C5.19006578 1.11925696 5.19006578 1.11925696 9 1 C9 1.99 9 2.98 9 4 C8.05125 4.268125 7.1025 4.53625 6.125 4.8125 C2.74732727 5.74986588 2.74732727 5.74986588 1 9 C0.67 6.03 0.34 3.06 0 0 Z " fill="#0E6581" transform="translate(231,47)"/>
<path d="M0 0 C-3.75 2 -3.75 2 -6 2 C-6 2.66 -6 3.32 -6 4 C-8.8125 4.25 -8.8125 4.25 -12 4 C-13.875 2 -13.875 2 -15 0 C-14.07767578 0.01740234 -14.07767578 0.01740234 -13.13671875 0.03515625 C-11.92435547 0.04869141 -11.92435547 0.04869141 -10.6875 0.0625 C-9.88699219 0.07410156 -9.08648437 0.08570313 -8.26171875 0.09765625 C-0.68807339 -0.2293578 -0.68807339 -0.2293578 0 0 Z " fill="#023347" transform="translate(203,58)"/>
<path d="M0 0 C0.66 0 1.32 0 2 0 C2 3.63 2 7.26 2 11 C1.01 11.33 0.02 11.66 -1 12 C-1.02687279 10.18757948 -1.04633715 8.37504767 -1.0625 6.5625 C-1.07410156 5.55316406 -1.08570313 4.54382812 -1.09765625 3.50390625 C-1 1 -1 1 0 0 Z " fill="#054C65" transform="translate(151,47)"/>
<path d="M0 0 C2.3125 -0.25 2.3125 -0.25 5 0 C7.65315971 2.37869491 7.98103345 3.67124653 8.1875 7.25 C8.125625 8.1575 8.06375 9.065 8 10 C7.34 10 6.68 10 6 10 C5.566875 8.906875 5.13375 7.81375 4.6875 6.6875 C3.50504359 3.90591207 2.39199957 1.93638061 0 0 Z " fill="#5EC4E1" transform="translate(82,45)"/>
<path d="M0 0 C4.455 1.98 4.455 1.98 9 4 C9 4.99 9 5.98 9 7 C6.125 7.125 6.125 7.125 3 7 C0.64046906 4.64046906 0.50858587 3.22104383 0 0 Z " fill="#0C5B76" transform="translate(48,48)"/>
<path d="M0 0 C0.99 0 1.98 0 3 0 C3 2.97 3 5.94 3 9 C1.68 8.67 0.36 8.34 -1 8 C-1.04241723 5.66705225 -1.04092937 3.33297433 -1 1 C-0.67 0.67 -0.34 0.34 0 0 Z " fill="#064F68" transform="translate(208,48)"/>
<path d="M0 0 C0.66 0 1.32 0 2 0 C1.01 3.63 0.02 7.26 -1 11 C-3.95183101 8.04816899 -4.08663988 5.04488053 -5 1 C-4.34 1 -3.68 1 -3 1 C-2.34 1.66 -1.68 2.32 -1 3 C-0.67 2.01 -0.34 1.02 0 0 Z " fill="#05526C" transform="translate(177,42)"/>
<path d="M0 0 C3.37462715 0.54723683 5.08235 1.0549 8 3 C10.28648848 3.24107326 10.28648848 3.24107326 12.6875 3.125 C13.49574219 3.10695312 14.30398437 3.08890625 15.13671875 3.0703125 C15.75160156 3.04710937 16.36648437 3.02390625 17 3 C17 3.33 17 3.66 17 4 C10.18597425 5.05268874 4.63198569 4.93833398 -2 3 C-1.34 2.01 -0.68 1.02 0 0 Z " fill="#012333" transform="translate(93,39)"/>
<path d="M0 0 C2.00720923 0.28674418 4.0085944 0.61866701 6 1 C5.67 2.32 5.34 3.64 5 5 C4.21625 4.79375 3.4325 4.5875 2.625 4.375 C1.325625 4.189375 1.325625 4.189375 0 4 C-0.66 4.66 -1.32 5.32 -2 6 C-1.125 1.125 -1.125 1.125 0 0 Z " fill="#41A9C8" transform="translate(235,51)"/>
<path d="M0 0 C0.33 0 0.66 0 1 0 C1 4.95 1 9.9 1 15 C1.66 15 2.32 15 3 15 C3 12.69 3 10.38 3 8 C3.33 8 3.66 8 4 8 C4.144375 9.11375 4.28875 10.2275 4.4375 11.375 C4.78372035 14.82142047 4.78372035 14.82142047 6 17 C4.02 17 2.04 17 0 17 C0 11.39 0 5.78 0 0 Z " fill="#176D89" transform="translate(184,41)"/>
<path d="M0 0 C0.99 0 1.98 0 3 0 C3 0.66 3 1.32 3 2 C3.66 2 4.32 2 5 2 C5 4.64 5 7.28 5 10 C3.68 9.67 2.36 9.34 1 9 C1.020625 8.071875 1.04125 7.14375 1.0625 6.1875 C1.15769604 2.97713989 1.15769604 2.97713989 0 0 Z " fill="#075975" transform="translate(88,46)"/>
<path d="M0 0 C0.99 0.33 1.98 0.66 3 1 C5.39490986 1.06970052 7.79167691 1.08448003 10.1875 1.0625 C11.45980469 1.05347656 12.73210938 1.04445312 14.04296875 1.03515625 C15.01878906 1.02355469 15.99460937 1.01195312 17 1 C17 1.33 17 1.66 17 2 C11.75614911 3.7479503 7.52677733 4.19392201 2 4 C1.34 2.68 0.68 1.36 0 0 Z " fill="#03394E" transform="translate(48,57)"/>
<path d="M0 0 C0.66 1.32 1.32 2.64 2 4 C0.875 6 0.875 6 -1 8 C-4.0625 8.375 -4.0625 8.375 -7 8 C-7.66 7.34 -8.32 6.68 -9 6 C-5.535 5.505 -5.535 5.505 -2 5 C-1.34 3.35 -0.68 1.7 0 0 Z " fill="#012132" transform="translate(254,54)"/>
<path d="M0 0 C0.66 0 1.32 0 2 0 C2 3.3 2 6.6 2 10 C1.01 10 0.02 10 -1 10 C-1.125 2.25 -1.125 2.25 0 0 Z " fill="#71DAF6" transform="translate(182,48)"/>
<path d="M0 0 C0.99 0 1.98 0 3 0 C2.67 1.32 2.34 2.64 2 4 C3.65 4 5.3 4 7 4 C6.67 4.66 6.34 5.32 6 6 C4.02 6 2.04 6 0 6 C-0.38218767 4.34385343 -0.71395102 2.67542976 -1 1 C-0.67 0.67 -0.34 0.34 0 0 Z " fill="#6DD6F3" transform="translate(103,52)"/>
<path d="M0 0 C0.99 0.33 1.98 0.66 3 1 C2.34 1.66 1.68 2.32 1 3 C0.78323592 6.39597063 0.91926148 8.75778445 2 12 C0.5625 14.1875 0.5625 14.1875 -1 16 C-1.02685095 13.52076199 -1.04676547 11.0418116 -1.0625 8.5625 C-1.07506836 7.50192383 -1.07506836 7.50192383 -1.08789062 6.41992188 C-1.09653588 4.61306441 -1.05220011 2.80612397 -1 1 C-0.67 0.67 -0.34 0.34 0 0 Z " fill="#063C52" transform="translate(48,41)"/>
<path d="M0 0 C0.33 0 0.66 0 1 0 C1 1.98 1 3.96 1 6 C-2.62326739 7.2077558 -3.64146369 6.54311128 -7 5 C-7 4.34 -7 3.68 -7 3 C-6.21625 3.061875 -5.4325 3.12375 -4.625 3.1875 C-3.75875 3.125625 -2.8925 3.06375 -2 3 C-1.34 2.01 -0.68 1.02 0 0 Z " fill="#0B5F7B" transform="translate(136,45)"/>
<path d="M0 0 C2 3 2 3 2 6 C1.34 6 0.68 6 0 6 C-0.99 9.465 -0.99 9.465 -2 13 C-2.33 13 -2.66 13 -3 13 C-3 9.7 -3 6.4 -3 3 C-2.01 3 -1.02 3 0 3 C0 2.01 0 1.02 0 0 Z " fill="#4FB9D8" transform="translate(172,45)"/>
<path d="M0 0 C2.31 0 4.62 0 7 0 C7.66 1.32 8.32 2.64 9 4 C12.3 4 15.6 4 19 4 C19 4.33 19 4.66 19 5 C15.37 5 11.74 5 8 5 C7.34 3.68 6.68 2.36 6 1 C4.02 1.33 2.04 1.66 0 2 C0 1.34 0 0.68 0 0 Z " fill="#023347" transform="translate(179,40)"/>
<path d="M0 0 C1.98 0 3.96 0 6 0 C6 0.66 6 1.32 6 2 C6.66 2 7.32 2 8 2 C8.33 3.65 8.66 5.3 9 7 C8.01 6.67 7.02 6.34 6 6 C5.3125 3.9375 5.3125 3.9375 5 2 C3.02 2.33 1.04 2.66 -1 3 C-0.67 2.01 -0.34 1.02 0 0 Z " fill="#012435" transform="translate(246,38)"/>
<path d="M0 0 C0.99 0.33 1.98 0.66 3 1 C0.875 3.5625 0.875 3.5625 -2 6 C-5.3125 5.8125 -5.3125 5.8125 -8 5 C-8 4.67 -8 4.34 -8 4 C-6.02 4 -4.04 4 -2 4 C-2 3.01 -2 2.02 -2 1 C-1.34 0.67 -0.68 0.34 0 0 Z " fill="#012234" transform="translate(83,61)"/>
<path d="M0 0 C1.0725 0.2475 2.145 0.495 3.25 0.75 C2.25 2.25 2.25 2.25 0.25 3.75 C-2.46846235 4.02345479 -5.00677199 3.88491285 -7.75 3.75 C-5.15187156 0.32047046 -4.43092205 -0.2953948 0 0 Z " fill="#012334" transform="translate(155.75,58.25)"/>
<path d="M0 0 C2.31 0.33 4.62 0.66 7 1 C6.01 1.495 6.01 1.495 5 2 C5.33 2.99 5.66 3.98 6 5 C4.02 4.34 2.04 3.68 0 3 C0 2.01 0 1.02 0 0 Z " fill="#116985" transform="translate(52,44)"/>
<path d="M0 0 C1.2065625 0.0309375 1.2065625 0.0309375 2.4375 0.0625 C2.4375 0.7225 2.4375 1.3825 2.4375 2.0625 C0.7875 2.0625 -0.8625 2.0625 -2.5625 2.0625 C-2.8925 3.3825 -3.2225 4.7025 -3.5625 6.0625 C-5.2125 6.0625 -6.8625 6.0625 -8.5625 6.0625 C-2.5625 0.0625 -2.5625 0.0625 0 0 Z " fill="#012232" transform="translate(228.5625,36.9375)"/>
<path d="M0 0 C1.32 0 2.64 0 4 0 C4.66 1.98 5.32 3.96 6 6 C4.68 6 3.36 6 2 6 C2 5.01 2 4.02 2 3 C1.01 2.67 0.02 2.34 -1 2 C-0.67 1.34 -0.34 0.68 0 0 Z " fill="#0F5F79" transform="translate(98,53)"/>
<path d="M0 0 C3.465 1.485 3.465 1.485 7 3 C6.67 3.99 6.34 4.98 6 6 C6 5.34 6 4.68 6 4 C2.7 3.67 -0.6 3.34 -4 3 C-2.68 2.01 -1.36 1.02 0 0 Z " fill="#054A62" transform="translate(70,57)"/>
<path d="M0 0 C0.33 0 0.66 0 1 0 C1 3.96 1 7.92 1 12 C-1 11 -1 11 -1.75 9.375 C-2.10912151 5.96334563 -1.05444067 3.22534792 0 0 Z " fill="#07607C" transform="translate(76,48)"/>
<path d="M0 0 C0.66 0 1.32 0 2 0 C2 1.65 2 3.3 2 5 C-0.97 5 -3.94 5 -7 5 C-7 4.67 -7 4.34 -7 4 C-5.35 4 -3.7 4 -2 4 C-2 3.34 -2 2.68 -2 2 C-1.34 2 -0.68 2 0 2 C0 1.34 0 0.68 0 0 Z " fill="#55BEDC" transform="translate(59,51)"/>
<path d="M0 0 C0 1.98 0 3.96 0 6 C-1.32 5.67 -2.64 5.34 -4 5 C-4 3.68 -4 2.36 -4 1 C-1 0 -1 0 0 0 Z " fill="#69D0EE" transform="translate(172,42)"/>
<path d="M0 0 C0 0.99 0 1.98 0 3 C-1.32 3 -2.64 3 -4 3 C-4.33 3.66 -4.66 4.32 -5 5 C-5.33 3.68 -5.66 2.36 -6 1 C-3 0 -3 0 0 0 Z " fill="#6AD2EF" transform="translate(124,46)"/>
<path d="M0 0 C2.475 0.495 2.475 0.495 5 1 C5 1.99 5 2.98 5 4 C3.35 3.67 1.7 3.34 0 3 C0 2.01 0 1.02 0 0 Z " fill="#60C4E0" transform="translate(248,55)"/>
<path d="M0 0 C2.62386487 3.06117568 3 3.73173127 3 8 C2.01 8 1.02 8 0 8 C0 5.36 0 2.72 0 0 Z " fill="#095F7B" transform="translate(170,50)"/>
<path d="M0 0 C0.33 0.66 0.66 1.32 1 2 C0.67 2.99 0.34 3.98 0 5 C0.99 4.67 1.98 4.34 3 4 C2.67 4.99 2.34 5.98 2 7 C-0.475 6.01 -0.475 6.01 -3 5 C-3 4.34 -3 3.68 -3 3 C-2.34 3 -1.68 3 -1 3 C-0.67 2.01 -0.34 1.02 0 0 Z " fill="#04445B" transform="translate(60,43)"/>
</svg>
