<?xml version="1.0" encoding="UTF-8"?>
<svg version="1.1" xmlns="http://www.w3.org/2000/svg" width="217" height="41">
<path d="M0 0 C71.61 0 143.22 0 217 0 C217 13.53 217 27.06 217 41 C145.39 41 73.78 41 0 41 C0 27.47 0 13.94 0 0 Z " fill="#000304" transform="translate(0,0)"/>
<path d="M0 0 C1.65 0 3.3 0 5 0 C8 5.75 8 5.75 8 8 C8.66 8 9.32 8 10 8 C10.66 5.69 11.32 3.38 12 1 C13.65 0.67 15.3 0.34 17 0 C18.13480527 3.60993172 18.10015767 6.9842327 18.0625 10.75 C18.05347656 11.92046875 18.04445312 13.0909375 18.03515625 14.296875 C18.02355469 15.18890625 18.01195312 16.0809375 18 17 C16.68 17 15.36 17 14 17 C13.67 14.69 13.34 12.38 13 10 C12.01 12.31 11.02 14.62 10 17 C9.01 17 8.02 17 7 17 C6.34 15.02 5.68 13.04 5 11 C4.67 12.98 4.34 14.96 4 17 C2.68 17 1.36 17 0 17 C0 11.39 0 5.78 0 0 Z " fill="#12A7D0" transform="translate(125,11)"/>
<path d="M0 0 C1.32 0 2.64 0 4 0 C4 6.27 4 12.54 4 19 C2.411875 19.061875 0.82375 19.12375 -0.8125 19.1875 C-2.15248047 19.23970703 -2.15248047 19.23970703 -3.51953125 19.29296875 C-6 19 -6 19 -7.80078125 17.67578125 C-9.65747311 15.08125093 -9.38675552 13.09404418 -9 10 C-7.875 8.0625 -7.875 8.0625 -6 7 C-2.8125 7.3125 -2.8125 7.3125 0 8 C0 5.36 0 2.72 0 0 Z " fill="#119EC5" transform="translate(182,10)"/>
<path d="M0 0 C2 2 2 2 2.3125 4.9375 C2 8 2 8 0.875 9.9375 C-1.92670027 11.52513015 -3.96985644 10.74070176 -7 10 C-7 11.98 -7 13.96 -7 16 C-7.99 16 -8.98 16 -10 16 C-10 10.72 -10 5.44 -10 0 C-5.66955459 -0.86608908 -3.99392372 -1.18738273 0 0 Z " fill="#12ABD5" transform="translate(51,18)"/>
<path d="M0 0 C0 3.63 0 7.26 0 11 C-7.51953125 11.390625 -7.51953125 11.390625 -10 11 C-12.17229869 8.76173128 -12.92175274 7.53468963 -13.375 4.4375 C-12.21182541 -3.1231348 -5.76653028 -0.82379004 0 0 Z " fill="#11A0C8" transform="translate(38,18)"/>
<path d="M0 0 C0 3.63 0 7.26 0 11 C-7.51953125 11.390625 -7.51953125 11.390625 -10 11 C-11.83203125 9.1796875 -11.83203125 9.1796875 -13 7 C-12.875 3.875 -12.875 3.875 -12 1 C-7.66314105 -1.8912393 -5.07581238 -0.73562498 0 0 Z " fill="#119BC1" transform="translate(200,18)"/>
<path d="M0 0 C1.670625 0.061875 1.670625 0.061875 3.375 0.125 C3.375 1.445 3.375 2.765 3.375 4.125 C1.725 4.125 0.075 4.125 -1.625 4.125 C-1.955 4.785 -2.285 5.445 -2.625 6.125 C-1.201875 6.558125 -1.201875 6.558125 0.25 7 C3.375 8.125 3.375 8.125 5.375 10.125 C5.75 12.5625 5.75 12.5625 5.375 15.125 C3.09037467 17.67323595 1.72524831 18.08926038 -1.6875 18.4375 C-4.625 18.125 -4.625 18.125 -7.625 16.125 C-7.295 15.135 -6.965 14.145 -6.625 13.125 C-4.315 13.455 -2.005 13.785 0.375 14.125 C-0.95832095 10.12503714 -3.1207827 9.28717663 -6.625 7.125 C-5.84042384 2.15601765 -5.49387562 0.18944399 0 0 Z " fill="#12A7D0" transform="translate(18.625,10.875)"/>
<path d="M0 0 C1.32 0 2.64 0 4 0 C4.33 2.31 4.66 4.62 5 7 C5.78375 7.12375 6.5675 7.2475 7.375 7.375 C10 8 10 8 12 10 C12.1953125 12.1640625 12.1953125 12.1640625 12.125 14.625 C12.10695313 15.44226562 12.08890625 16.25953125 12.0703125 17.1015625 C12.03550781 18.04128906 12.03550781 18.04128906 12 19 C10.68 19 9.36 19 8 19 C7.67 16.36 7.34 13.72 7 11 C6.34 11 5.68 11 5 11 C4.67 13.64 4.34 16.28 4 19 C2.68 19 1.36 19 0 19 C0 12.73 0 6.46 0 0 Z " fill="#119CC2" transform="translate(99,10)"/>
<path d="M0 0 C0.80050781 0.12761719 1.60101563 0.25523438 2.42578125 0.38671875 C4.56046875 0.72703125 4.56046875 0.72703125 6.73828125 1.07421875 C6.73828125 4.70421875 6.73828125 8.33421875 6.73828125 12.07421875 C5.31515625 12.13609375 3.89203125 12.19796875 2.42578125 12.26171875 C1.22501953 12.31392578 1.22501953 12.31392578 0 12.3671875 C-2.26171875 12.07421875 -2.26171875 12.07421875 -4.03125 10.75 C-5.93089015 8.16287103 -5.6505275 6.18468876 -5.26171875 3.07421875 C-3.59907546 0.76763107 -2.88386801 0.0946347 0 0 Z " fill="#12A6CE" transform="translate(68.26171875,16.92578125)"/>
<path d="M0 0 C2.375 1.625 2.375 1.625 4 4 C3.9375 7.125 3.9375 7.125 3 10 C-0.46923881 12.31282587 -1.92205575 12.42478586 -6 12 C-7.875 10.875 -7.875 10.875 -9 9 C-9.4375 6 -9.4375 6 -9 3 C-6.31164707 0.01294119 -3.93697301 -0.68897028 0 0 Z " fill="#12A3CB" transform="translate(154,17)"/>
<path d="M0 0 C1.60875 -0.04125 3.2175 -0.0825 4.875 -0.125 C5.77992188 -0.14820312 6.68484375 -0.17140625 7.6171875 -0.1953125 C10 0 10 0 12 2 C12.1953125 4.3828125 12.1953125 4.3828125 12.125 7.125 C12.10695312 8.03507812 12.08890625 8.94515625 12.0703125 9.8828125 C12.04710937 10.58148438 12.02390625 11.28015625 12 12 C10.68 12 9.36 12 8 12 C8 9.03 8 6.06 8 3 C7.01 3.33 6.02 3.66 5 4 C4.67 6.64 4.34 9.28 4 12 C2.68 12 1.36 12 0 12 C0 8.04 0 4.08 0 0 Z " fill="#119DC4" transform="translate(159,17)"/>
<path d="M0 0 C1.4540625 0.0309375 1.4540625 0.0309375 2.9375 0.0625 C2.9375 1.0525 2.9375 2.0425 2.9375 3.0625 C1.9475 3.3925 0.9575 3.7225 -0.0625 4.0625 C1.2575 4.7225 2.5775 5.3825 3.9375 6.0625 C3.0625 10.9375 3.0625 10.9375 1.9375 12.0625 C-0.06208364 12.10330783 -2.06295254 12.10504356 -4.0625 12.0625 C-4.0625 10.7425 -4.0625 9.4225 -4.0625 8.0625 C-3.0725 8.0625 -2.0825 8.0625 -1.0625 8.0625 C-2.3825 7.0725 -3.7025 6.0825 -5.0625 5.0625 C-3.9375 0.08035714 -3.9375 0.08035714 0 0 Z " fill="#119FC5" transform="translate(93.0625,16.9375)"/>
<path d="M0 0 C0.99 0 1.98 0 3 0 C3 1.32 3 2.64 3 4 C3.66 4 4.32 4 5 4 C5 4.66 5 5.32 5 6 C4.34 6 3.68 6 3 6 C3 7.65 3 9.3 3 11 C3.99 11.33 4.98 11.66 6 12 C6 12.99 6 13.98 6 15 C4.33388095 15.042721 2.66617115 15.04063832 1 15 C0 14 0 14 -0.09765625 12.15234375 C-0.06510417 10.1015625 -0.03255208 8.05078125 0 6 C-0.66 6 -1.32 6 -2 6 C-2 5.34 -2 4.68 -2 4 C-1.34 4 -0.68 4 0 4 C0 2.68 0 1.36 0 0 Z " fill="#12ABD5" transform="translate(56,14)"/>
<path d="M0 0 C-0.33 1.32 -0.66 2.64 -1 4 C-2.32 4 -3.64 4 -5 4 C-5 6.64 -5 9.28 -5 12 C-6.32 12 -7.64 12 -9 12 C-9 8.37 -9 4.74 -9 1 C-4 0 -4 0 0 0 Z " fill="#119EC5" transform="translate(87,17)"/>
<path d="M0 0 C0.99 0 1.98 0 3 0 C3 6.27 3 12.54 3 19 C2.01 19 1.02 19 0 19 C0 12.73 0 6.46 0 0 Z " fill="#13AED9" transform="translate(203,10)"/>
<path d="M0 0 C2.97 0.495 2.97 0.495 6 1 C5.34 4.63 4.68 8.26 4 12 C2.68 12 1.36 12 0 12 C0 8.04 0 4.08 0 0 Z " fill="#1095BA" transform="translate(159,17)"/>
<path d="M0 0 C1.32 0 2.64 0 4 0 C4 3.96 4 7.92 4 12 C2.68 12 1.36 12 0 12 C0 8.04 0 4.08 0 0 Z " fill="#1098BD" transform="translate(113,17)"/>
<path d="M0 0 C0.99 0 1.98 0 3 0 C3 3.3 3 6.6 3 10 C1.35 9.67 -0.3 9.34 -2 9 C-1.125 1.125 -1.125 1.125 0 0 Z " fill="#13B1DD" transform="translate(197,18)"/>
<path d="M0 0 C1.32 0 2.64 0 4 0 C3.67 1.65 3.34 3.3 3 5 C1.68 4.34 0.36 3.68 -1 3 C-0.67 2.01 -0.34 1.02 0 0 Z " fill="#011115" transform="translate(192,21)"/>
<path d="M0 0 C2.475 0.495 2.475 0.495 5 1 C4.34 2.32 3.68 3.64 3 5 C2.01 4.67 1.02 4.34 0 4 C0 2.68 0 1.36 0 0 Z " fill="#011116" transform="translate(149,21)"/>
<path d="M0 0 C2.475 0.495 2.475 0.495 5 1 C4.34 2.32 3.68 3.64 3 5 C2.01 4.67 1.02 4.34 0 4 C0 2.68 0 1.36 0 0 Z " fill="#021318" transform="translate(67,21)"/>
<path d="M0 0 C1.32 0 2.64 0 4 0 C3.67 1.65 3.34 3.3 3 5 C1.68 4.34 0.36 3.68 -1 3 C-0.67 2.01 -0.34 1.02 0 0 Z " fill="#011115" transform="translate(45,21)"/>
<path d="M0 0 C1.32 0 2.64 0 4 0 C4 1.32 4 2.64 4 4 C2.35 4 0.7 4 -1 4 C-0.67 2.68 -0.34 1.36 0 0 Z " fill="#010E11" transform="translate(30,21)"/>
<path d="M0 0 C2.475 0.495 2.475 0.495 5 1 C4.67 1.99 4.34 2.98 4 4 C2.68 4 1.36 4 0 4 C0 2.68 0 1.36 0 0 Z " fill="#00090B" transform="translate(177,21)"/>
<path d="M0 0 C0 2.31 0 4.62 0 7 C-0.66 6.01 -1.32 5.02 -2 4 C-4.05003955 2.80767387 -4.05003955 2.80767387 -6 2 C-6 1.67 -6 1.34 -6 1 C-1.125 0 -1.125 0 0 0 Z " fill="#010A0D" transform="translate(98,19)"/>
</svg>
