<?xml version="1.0" encoding="UTF-8"?>
<svg version="1.1" xmlns="http://www.w3.org/2000/svg" width="133" height="20">
<path d="M0 0 C1.32 0.66 2.64 1.32 4 2 C3.67 3.98 3.34 5.96 3 8 C3.66 8 4.32 8 5 8 C4.979375 7.195625 4.95875 6.39125 4.9375 5.5625 C5 3 5 3 6 2 C8.5 1.875 8.5 1.875 11 2 C12 3 12 3 12.0625 6.5625 C12.041875 7.696875 12.02125 8.83125 12 10 C10.20866022 10.05391993 8.41686101 10.09275571 6.625 10.125 C5.62726562 10.14820313 4.62953125 10.17140625 3.6015625 10.1953125 C1 10 1 10 -1 8 C-1.66 8.66 -2.32 9.32 -3 10 C-4.32 10 -5.64 10 -7 10 C-7 10.99 -7 11.98 -7 13 C-7.99 12.67 -8.98 12.34 -10 12 C-10 8.7 -10 5.4 -10 2 C-7 2 -4 2 -1 2 C-0.67 1.34 -0.34 0.68 0 0 Z M-6 4 C-6.33 4.99 -6.66 5.98 -7 7 C-6.01 7 -5.02 7 -4 7 C-4.33 6.01 -4.66 5.02 -5 4 C-5.33 4 -5.66 4 -6 4 Z " fill="#299AB6" transform="translate(32,5)"/>
<path d="M0 0 C0.99 0 1.98 0 3 0 C3 0.99 3 1.98 3 3 C5.475 3.495 5.475 3.495 8 4 C8 6.31 8 8.62 8 11 C7.34 11 6.68 11 6 11 C5.87625 10.360625 5.7525 9.72125 5.625 9.0625 C5.41875 8.381875 5.2125 7.70125 5 7 C4.34 6.67 3.68 6.34 3 6 C3 7.65 3 9.3 3 11 C-0.3 11 -3.6 11 -7 11 C-7.33 9.35 -7.66 7.7 -8 6 C-8.66 7.65 -9.32 9.3 -10 11 C-10.66 11 -11.32 11 -12 11 C-12 8.36 -12 5.72 -12 3 C-8.37 3 -4.74 3 -1 3 C-0.67 2.01 -0.34 1.02 0 0 Z " fill="#25A0BC" transform="translate(58,4)"/>
<path d="M0 0 C0.99 0 1.98 0 3 0 C3 3.63 3 7.26 3 11 C-1 11 -5 11 -9 11 C-9 9.35 -9 7.7 -9 6 C-9.66 6 -10.32 6 -11 6 C-11 7.65 -11 9.3 -11 11 C-11.99 11 -12.98 11 -14 11 C-14 8.36 -14 5.72 -14 3 C-9.33333333 3 -4.66666667 3 0 3 C0 2.01 0 1.02 0 0 Z M-2 6 C-2 6.66 -2 7.32 -2 8 C-1.34 8 -0.68 8 0 8 C0 7.34 0 6.68 0 6 C-0.66 6 -1.32 6 -2 6 Z " fill="#369BB5" transform="translate(111,4)"/>
<path d="M0 0 C1.32 0.33 2.64 0.66 4 1 C4.33 1.99 4.66 2.98 5 4 C5.598125 3.34 6.19625 2.68 6.8125 2 C9 0 9 0 12 0 C12 3.3 12 6.6 12 10 C11.01 10 10.02 10 9 10 C8.67 9.34 8.34 8.68 8 8 C6.68 8 5.36 8 4 8 C3.67 8.66 3.34 9.32 3 10 C2.01 9.67 1.02 9.34 0 9 C0 6.03 0 3.06 0 0 Z " fill="#36B6D7" transform="translate(75,5)"/>
<path d="M0 0 C1.66611905 -0.042721 3.33382885 -0.04063832 5 0 C6 1 6 1 6.0625 4.5625 C6.041875 5.696875 6.02125 6.83125 6 8 C3.70858714 8.05384521 1.41681812 8.09272087 -0.875 8.125 C-2.78925781 8.15980469 -2.78925781 8.15980469 -4.7421875 8.1953125 C-8 8 -8 8 -10 6 C-9.34 4.68 -8.68 3.36 -8 2 C-5.69 2.33 -3.38 2.66 -1 3 C-0.67 2.01 -0.34 1.02 0 0 Z " fill="#399EB7" transform="translate(15,7)"/>
<path d="M0 0 C2.375 -0.1875 2.375 -0.1875 5 0 C7 3 7 3 6.625 5.6875 C6.41875 6.450625 6.2125 7.21375 6 8 C4.02 8 2.04 8 0 8 C-0.98120464 4.94736336 -0.98120464 3.05263664 0 0 Z " fill="#30B7DA" transform="translate(116,7)"/>
<path d="M0 0 C2.5625 0.1875 2.5625 0.1875 4.5625 2.1875 C4.00694444 6.74305556 4.00694444 6.74305556 2.5625 8.1875 C0.0625 8.3125 0.0625 8.3125 -2.4375 8.1875 C-3.4375 7.1875 -3.4375 7.1875 -3.5625 4.1875 C-3.39891479 0.26145498 -3.39891479 0.26145498 0 0 Z M-0.4375 2.1875 C-0.4375 3.1775 -0.4375 4.1675 -0.4375 5.1875 C0.2225 5.1875 0.8825 5.1875 1.5625 5.1875 C1.5625 4.1975 1.5625 3.2075 1.5625 2.1875 C0.9025 2.1875 0.2425 2.1875 -0.4375 2.1875 Z " fill="#37A8C5" transform="translate(91.4375,6.8125)"/>
<path d="M0 0 C2.5 0.125 2.5 0.125 3.5 1.125 C3.54092937 3.45797433 3.54241723 5.79205225 3.5 8.125 C1.52 8.125 -0.46 8.125 -2.5 8.125 C-2.88063221 5.7989143 -3.21269945 3.46444736 -3.5 1.125 C-2.5 0.125 -2.5 0.125 0 0 Z " fill="#30A4C1" transform="translate(40.5,6.875)"/>
<path d="M0 0 C0.99 0 1.98 0 3 0 C3 3.63 3 7.26 3 11 C0.69 11 -1.62 11 -4 11 C-3.34 10.01 -2.68 9.02 -2 8 C-1.34 8 -0.68 8 0 8 C-0.33 6.68 -0.66 5.36 -1 4 C-0.34 4 0.32 4 1 4 C0.67 2.68 0.34 1.36 0 0 Z " fill="#23A6C8" transform="translate(111,4)"/>
<path d="M0 0 C0.99 0 1.98 0 3 0 C3 3.3 3 6.6 3 10 C2.01 10 1.02 10 0 10 C0.33 8.02 0.66 6.04 1 4 C0.01 3.67 -0.98 3.34 -2 3 C-1.34 2.01 -0.68 1.02 0 0 Z " fill="#34A2BE" transform="translate(84,5)"/>
<path d="M0 0 C0.33 0.66 0.66 1.32 1 2 C0.34 2 -0.32 2 -1 2 C-1 3.98 -1 5.96 -1 8 C-2.32 8 -3.64 8 -5 8 C-5 7.34 -5 6.68 -5 6 C-5.66 6 -6.32 6 -7 6 C-7 5.34 -7 4.68 -7 4 C-6.34 4 -5.68 4 -5 4 C-4.67 3.01 -4.34 2.02 -4 1 C-1.9375 0.3125 -1.9375 0.3125 0 0 Z " fill="#33B6D8" transform="translate(111,6)"/>
<path d="M0 0 C0.99 0.33 1.98 0.66 3 1 C3.125 8.75 3.125 8.75 2 11 C1.34 11 0.68 11 0 11 C0 7.37 0 3.74 0 0 Z " fill="#1D93B1" transform="translate(124,4)"/>
<path d="M0 0 C1.66611905 -0.042721 3.33382885 -0.04063832 5 0 C6 1 6 1 6.0625 4.5625 C6.041875 5.696875 6.02125 6.83125 6 8 C4.02 8 2.04 8 0 8 C0.474375 7.566875 0.94875 7.13375 1.4375 6.6875 C3.23686957 4.97690387 3.23686957 4.97690387 4 2 C2.35 2 0.7 2 -1 2 C-0.67 1.34 -0.34 0.68 0 0 Z " fill="#2F96B3" transform="translate(15,7)"/>
<path d="M0 0 C1.65 0 3.3 0 5 0 C5 1.65 5 3.3 5 5 C2.69 5 0.38 5 -2 5 C-1.34 3.35 -0.68 1.7 0 0 Z " fill="#4CD3EB" transform="translate(14,9)"/>
<path d="M0 0 C0.99 0 1.98 0 3 0 C2.67 1.32 2.34 2.64 2 4 C3.65 4 5.3 4 7 4 C7 4.66 7 5.32 7 6 C5.02 6 3.04 6 1 6 C0.67 6.66 0.34 7.32 0 8 C0 5.36 0 2.72 0 0 Z " fill="#19A6C9" transform="translate(23,8)"/>
<path d="M0 0 C1.32 0 2.64 0 4 0 C3.67 3.63 3.34 7.26 3 11 C2.34 11 1.68 11 1 11 C0.67 7.37 0.34 3.74 0 0 Z " fill="#36A0BE" transform="translate(67,4)"/>
<path d="M0 0 C0.66 0 1.32 0 2 0 C1.125 3.875 1.125 3.875 0 5 C-1.66617115 5.04063832 -3.33388095 5.042721 -5 5 C-5.33 4.01 -5.66 3.02 -6 2 C-4.02 2 -2.04 2 0 2 C0 1.34 0 0.68 0 0 Z " fill="#1D97C5" transform="translate(94,10)"/>
<path d="M0 0 C1.65 0 3.3 0 5 0 C5 1.65 5 3.3 5 5 C3.68 5.33 2.36 5.66 1 6 C0.67 4.02 0.34 2.04 0 0 Z " fill="#31AFD3" transform="translate(52,7)"/>
<path d="M0 0 C1.65 0 3.3 0 5 0 C3.68 0.33 2.36 0.66 1 1 C1 2.65 1 4.3 1 6 C2.65 6.33 4.3 6.66 6 7 C6 7.33 6 7.66 6 8 C4.02 8 2.04 8 0 8 C-0.98120464 4.94736336 -0.98120464 3.05263664 0 0 Z " fill="#2C91AC" transform="translate(116,7)"/>
<path d="M0 0 C1.32 0 2.64 0 4 0 C3 4 3 4 2 8 C1.34 8 0.68 8 0 8 C0 5.36 0 2.72 0 0 Z " fill="#36A8C7" transform="translate(46,7)"/>
<path d="M0 0 C1.65 0 3.3 0 5 0 C4.67 1.32 4.34 2.64 4 4 C4 3.34 4 2.68 4 2 C3.34 2 2.68 2 2 2 C1.67 3.32 1.34 4.64 1 6 C0.67 6 0.34 6 0 6 C0 4.02 0 2.04 0 0 Z " fill="#2EB8D8" transform="translate(98,8)"/>
<path d="M0 0 C1.32 0 2.64 0 4 0 C4 0.66 4 1.32 4 2 C3.34 2 2.68 2 2 2 C2 2.66 2 3.32 2 4 C2.66 4.33 3.32 4.66 4 5 C2.35 4.67 0.7 4.34 -1 4 C-0.67 2.68 -0.34 1.36 0 0 Z " fill="#37C1DF" transform="translate(38,9)"/>
<path d="M0 0 C0.99 0.66 1.98 1.32 3 2 C3 2.99 3 3.98 3 5 C0.69 5 -1.62 5 -4 5 C-3.34 4.01 -2.68 3.02 -2 2 C-1.34 2 -0.68 2 0 2 C0 1.34 0 0.68 0 0 Z " fill="#1E91B2" transform="translate(111,10)"/>
<path d="M0 0 C1.80330533 3.60661066 2.46599103 6.08393425 3 10 C2.01 9.67 1.02 9.34 0 9 C0 6.03 0 3.06 0 0 Z " fill="#39A0B1" transform="translate(75,5)"/>
<path d="" fill="#002D3C" transform="translate(0,0)"/>
</svg>
